<svg xmlns="http://www.w3.org/2000/svg" width="44.003" height="28.666" viewBox="0 0 44.003 28.666"><path d="M23.3-56.553a6.751,6.751,0,0,1,4.005,2.5,7.046,7.046,0,0,1,1.484,4.412,7.018,7.018,0,0,1-2.521,5.733q-2.521,2.074-7.075,2.074H4.6L14.6-70.5H18.75a10.938,10.938,0,0,1,6.892,1.952,6.563,6.563,0,0,1,2.5,5.489,6.617,6.617,0,0,1-1.321,4.208A6.564,6.564,0,0,1,23.3-56.553ZM12.976-59.115H17q3.009,0,3.009-2.48,0-2.562-3.009-2.562H12.976Zm4.635,10.856q3.009,0,3.009-2.521a2.5,2.5,0,0,0-.793-1.992,3.329,3.329,0,0,0-2.257-.691H12.976v5.2Z" transform="translate(15.21 70.5)" fill="#fff"/><path d="M14.5-41.834,20.2-52.406h.854v10.572h0l10-28.666h-14.6A12.993,12.993,0,0,0,10.6-69.3a8.4,8.4,0,0,0-3.619,3.293,9.157,9.157,0,0,0-1.22,4.7,8.534,8.534,0,0,0,1.606,5.144,8.679,8.679,0,0,0,4.7,3.151L5.6-41.834Zm6.546-16.02H17.107a3.422,3.422,0,0,1-2.44-.773,2.939,2.939,0,0,1-.813-2.236,2.859,2.859,0,0,1,.834-2.175,3.379,3.379,0,0,1,2.419-.793h3.944Z" transform="translate(-5.6 70.5)" fill="#fff"/></svg>